<svg xmlns="http://www.w3.org/2000/svg" width="750" height="420" viewBox="0 0 750 420" fill="none">
<rect width="750" height="420" fill="#FF7E44"/>
<path opacity="0.6" d="M343.333 229C343.333 225.318 346.318 222.333 350 222.333H400C403.682 222.333 406.666 225.318 406.666 229V232.333C406.666 236.015 403.682 239 400 239H350C346.318 239 343.333 236.015 343.333 232.333V229Z" fill="black"/>
<path opacity="0.8" d="M386.667 185.667C386.667 181.985 389.652 179 393.334 179H400C403.682 179 406.667 181.985 406.667 185.667V212.333C406.667 216.015 403.682 219 400 219H393.334C389.652 219 386.667 216.015 386.667 212.333V185.667Z" fill="black"/>
<path d="M343.333 185.667C343.333 181.985 346.318 179 350 179H376.666C380.348 179 383.333 181.985 383.333 185.667V212.333C383.333 216.015 380.348 219 376.666 219H350C346.318 219 343.333 216.015 343.333 212.333V185.667Z" fill="black"/>
</svg>