<svg xmlns="http://www.w3.org/2000/svg" width="750" height="420" viewBox="0 0 750 420" fill="none">
<rect width="750" height="420" fill="#FFD333"/>
<path d="M343.333 192.333C343.333 188.651 346.318 185.667 350 185.667H400C403.682 185.667 406.666 188.651 406.666 192.333C406.666 196.015 403.682 199 400 199H350C346.318 199 343.333 196.015 343.333 192.333Z" fill="black"/>
<path opacity="0.8" d="M343.333 209C343.333 205.318 346.318 202.333 350 202.333H373.333C377.015 202.333 380 205.318 380 209C380 212.682 377.015 215.667 373.333 215.667H350C346.318 215.667 343.333 212.682 343.333 209Z" fill="black"/>
<path opacity="0.6" d="M343.333 225.667C343.333 221.985 346.318 219 350 219H386.666C390.348 219 393.333 221.985 393.333 225.667C393.333 229.349 390.348 232.333 386.666 232.333H350C346.318 232.333 343.333 229.349 343.333 225.667Z" fill="black"/>
</svg>