<svg xmlns="http://www.w3.org/2000/svg" width="750" height="420" viewBox="0 0 750 420" fill="none">
<rect width="750" height="420" fill="#FF4060"/>
<path opacity="0.6" fill-rule="evenodd" clip-rule="evenodd" d="M398.333 237.333L369.547 237.333L396.214 210.667H398.333C402.015 210.667 405 213.651 405 217.333V230.667C405 234.348 402.015 237.333 398.333 237.333Z" fill="black"/>
<path opacity="0.8" fill-rule="evenodd" clip-rule="evenodd" d="M377.784 187.464C380.387 184.861 384.609 184.861 387.212 187.464L396.64 196.892C399.244 199.496 399.244 203.717 396.64 206.32L376.668 226.292L376.668 188.58L377.784 187.464Z" fill="black"/>
<path fill-rule="evenodd" clip-rule="evenodd" d="M353.334 179C349.652 179 346.667 181.985 346.667 185.667V224C346.667 231.364 352.637 237.333 360 237.333C367.364 237.333 373.334 231.364 373.334 224V185.667C373.334 181.985 370.349 179 366.667 179H353.334ZM360 229C362.762 229 365 226.761 365 224C365 221.239 362.762 219 360 219C357.239 219 355 221.239 355 224C355 226.761 357.239 229 360 229Z" fill="black"/>
</svg>