<svg xmlns="http://www.w3.org/2000/svg" width="750" height="420" viewBox="0 0 750 420" fill="none">
<rect width="750" height="420" fill="#B3DAFF"/>
<path opacity="0.6" fill-rule="evenodd" clip-rule="evenodd" d="M360 174.833C364.142 174.833 367.5 178.191 367.5 182.333V216.5H401.667C405.809 216.5 409.167 219.858 409.167 224C409.167 228.142 405.809 231.5 401.667 231.5H360C355.858 231.5 352.5 228.142 352.5 224V182.333C352.5 178.191 355.858 174.833 360 174.833Z" fill="black"/>
<path fill-rule="evenodd" clip-rule="evenodd" d="M390 243.167C385.858 243.167 382.5 239.809 382.5 235.667V201.5H348.333C344.191 201.5 340.833 198.142 340.833 194C340.833 189.858 344.191 186.5 348.333 186.5H390C394.142 186.5 397.5 189.858 397.5 194V235.667C397.5 239.809 394.142 243.167 390 243.167Z" fill="black"/>
</svg>