<svg xmlns="http://www.w3.org/2000/svg" width="750" height="420" viewBox="0 0 750 420" fill="none">
<rect width="750" height="420" fill="#C34CFF"/>
<path d="M370 181.5C370 186.563 365.896 190.667 360.834 190.667C355.771 190.667 351.667 186.563 351.667 181.5C351.667 176.438 355.771 172.333 360.834 172.333C365.896 172.333 370 176.438 370 181.5Z" fill="black"/>
<path opacity="0.6" d="M347.594 202.046C350.174 197.679 356.492 197.679 359.073 202.046L369.057 218.942C371.683 223.386 368.479 229 363.317 229H343.35C338.188 229 334.984 223.386 337.61 218.942L347.594 202.046Z" fill="black"/>
<path d="M377.587 185.435C380.165 181.053 386.502 181.053 389.08 185.435L410.757 222.287C413.371 226.731 410.167 232.334 405.011 232.334H361.656C356.5 232.334 353.296 226.731 355.91 222.287L377.587 185.435Z" fill="black"/>
</svg>