<svg xmlns="http://www.w3.org/2000/svg" width="750" height="420" viewBox="0 0 750 420" fill="none">
<rect width="750" height="420" fill="#E62EE6"/>
<path opacity="0.6" fill-rule="evenodd" clip-rule="evenodd" d="M355 205.667C358.682 205.667 361.666 208.652 361.666 212.334V214C361.666 218.603 365.397 222.334 370 222.334H371.666C375.348 222.334 378.333 225.318 378.333 229C378.333 232.682 375.348 235.667 371.666 235.667H370C358.034 235.667 348.333 225.966 348.333 214V212.334C348.333 208.652 351.318 205.667 355 205.667Z" fill="black"/>
<path opacity="0.6" fill-rule="evenodd" clip-rule="evenodd" d="M394.999 212.333C391.317 212.333 388.333 209.349 388.333 205.667V204C388.333 199.398 384.602 195.667 379.999 195.667H378.333C374.651 195.667 371.666 192.682 371.666 189C371.666 185.318 374.651 182.333 378.333 182.333H379.999C391.966 182.333 401.666 192.034 401.666 204V205.667C401.666 209.349 398.681 212.333 394.999 212.333Z" fill="black"/>
<path d="M381.667 222.333C381.667 218.651 384.652 215.667 388.334 215.667H401.667C405.349 215.667 408.334 218.651 408.334 222.333V235.667C408.334 239.348 405.349 242.333 401.667 242.333H388.334C384.652 242.333 381.667 239.348 381.667 235.667V222.333Z" fill="black"/>
<path d="M341.667 182.333C341.667 178.651 344.652 175.667 348.334 175.667H361.667C365.349 175.667 368.334 178.651 368.334 182.333V195.667C368.334 199.348 365.349 202.333 361.667 202.333H348.334C344.652 202.333 341.667 199.348 341.667 195.667V182.333Z" fill="black"/>
</svg>