<svg xmlns="http://www.w3.org/2000/svg" width="750" height="420" viewBox="0 0 750 420" fill="none">
<rect width="750" height="420" fill="#00AAFF"/>
<path opacity="0.6" d="M343.333 215.667C343.333 211.985 346.318 209 350 209H366.666C370.348 209 373.333 211.985 373.333 215.667V232.333C373.333 236.015 370.348 239 366.666 239H350C346.318 239 343.333 236.015 343.333 232.333V215.667Z" fill="black"/>
<path opacity="0.6" d="M376.667 182.333C376.667 178.651 379.652 175.667 383.334 175.667H400C403.682 175.667 406.667 178.651 406.667 182.333V199C406.667 202.682 403.682 205.667 400 205.667H383.334C379.652 205.667 376.667 202.682 376.667 199V182.333Z" fill="black"/>
<path d="M343.333 182.333C343.333 178.651 346.318 175.667 350 175.667H366.666C370.348 175.667 373.333 178.651 373.333 182.333V199C373.333 202.682 370.348 205.667 366.666 205.667H350C346.318 205.667 343.333 202.682 343.333 199V182.333Z" fill="black"/>
<path d="M383.334 209C379.652 209 376.667 211.985 376.667 215.667V234.286C376.667 237.256 380.257 238.743 382.357 236.643L388.62 230.381L396.953 238.714C399.556 241.318 403.778 241.318 406.381 238.714C408.985 236.111 408.985 231.889 406.381 229.286L398.048 220.953L404.31 214.69C406.41 212.59 404.923 209 401.953 209H383.334Z" fill="black"/>
</svg>